<svg width="132" height="24" viewBox="0 0 132 24" fill="none" xmlns="http://www.w3.org/2000/svg">
<path fill-rule="evenodd" clip-rule="evenodd" d="M44.3973 6.33918C43.4228 4.66667 41.9936 3.38012 40.2395 2.41521C38.4854 1.45029 36.4714 1 34.2625 1C32.0537 1 30.0397 1.45029 28.2856 2.41521C26.5315 3.38012 25.1672 4.66667 24.1278 6.33918C23.1533 8.0117 22.6335 9.87719 22.6335 11.9357C22.6335 13.9942 23.0883 15.924 24.1278 17.5965C25.1023 19.3333 26.5315 20.6199 28.2856 21.5848C30.0397 22.5497 32.0537 23 34.2625 23C36.4714 23 38.4854 22.5497 40.2395 21.5848C41.9936 20.6199 43.3579 19.269 44.3973 17.5965C45.3718 15.924 45.8916 14.0585 45.8916 11.9357C45.8916 9.87719 45.4368 8.0117 44.3973 6.33918ZM29.8448 9.04094C30.3646 8.20468 31.0142 7.49708 31.7938 6.98246C32.5734 6.46784 33.418 6.21053 34.3925 6.27485C35.302 6.27485 36.1466 6.53216 36.9262 7.04678C37.7058 7.5614 38.2905 8.20468 38.7452 9.10526C39.2 9.94152 39.3949 10.9064 39.3949 12C39.3949 13.0936 39.2 14.0585 38.7452 14.9591C38.3554 15.7953 37.7058 16.5029 36.9262 17.0175C36.1466 17.5322 35.302 17.7895 34.3925 17.7895C33.4829 17.7895 32.5734 17.5322 31.7938 17.0175C30.9493 16.5029 30.2996 15.7953 29.8448 14.8947C29.3901 13.9942 29.1302 13.0292 29.1302 11.9357C29.1302 10.9064 29.3901 9.94152 29.8448 9.04094Z"/>
<path d="M19.8403 1.38605H1V6.40359H7.17182V22.5498H13.6035V6.40359H19.8403V1.38605Z"/>
<path fill-rule="evenodd" clip-rule="evenodd" d="M66.1661 2.73692C67.9202 3.63751 69.2845 4.85973 70.1941 6.46792C71.1686 8.07611 71.6233 9.9416 71.6233 12.0001C71.6233 14.1229 71.1036 15.9241 70.1291 17.5322C69.1546 19.1404 67.7903 20.3627 66.0362 21.2632C64.2821 22.1638 62.2032 22.5498 59.9293 22.5498H50.7041V1.38605H60.1242C62.3981 1.38605 64.412 1.83634 66.1661 2.73692ZM63.8273 16.117C64.7369 15.0878 65.1916 13.7369 65.1916 12.0644C65.1916 10.3919 64.7369 8.97669 63.7624 7.94745C62.7879 6.91821 61.5535 6.40359 60.0593 6.40359H57.1358V17.7252H60.3191C61.7484 17.6609 62.9178 17.1463 63.8273 16.117Z"/>
<path fill-rule="evenodd" clip-rule="evenodd" d="M90.1989 19.2048L91.4332 22.6141L98.2547 22.5498L89.4193 1.38605H82.8576L73.7623 22.6141H80.259L81.5583 19.2048H90.1989ZM88.5097 14.5732H83.3124L85.976 7.62581L88.5097 14.5732Z"/>
<path d="M120.279 1.38605L112.613 15.8597V22.5498H106.246V15.9884L98.3849 1.38605H104.752L109.429 10.0059L113.977 1.38605H120.279Z"/>
<path fill-rule="evenodd" clip-rule="evenodd" d="M130.283 4.73115C130.283 3.76624 129.958 2.92998 129.244 2.22238C128.529 1.51477 127.685 1.19314 126.71 1.19314C125.736 1.19314 124.891 1.51477 124.176 2.22238C123.462 2.92998 123.137 3.76624 123.137 4.73115C123.137 5.69606 123.462 6.53232 124.176 7.23992C124.891 7.94752 125.736 8.26916 126.71 8.26916C127.685 8.26916 128.529 7.94752 129.244 7.23992C129.958 6.53232 130.283 5.69606 130.283 4.73115ZM124.956 4.73115C124.956 4.28086 125.151 3.89489 125.476 3.57325C125.801 3.25162 126.19 3.05863 126.71 3.05863C127.165 3.05863 127.62 3.25162 127.944 3.57325C128.269 3.89489 128.464 4.28086 128.464 4.73115C128.464 5.18144 128.269 5.56741 127.944 5.88904C127.62 6.21068 127.23 6.40366 126.71 6.40366C126.19 6.40366 125.801 6.21068 125.476 5.88904C125.151 5.56741 124.956 5.18144 124.956 4.73115Z"/>
</svg>
